# xmcd
# 
# Track frame offsets:
#	150
#	10885
#	30777
#	44000
#	55382
#	69083
#	79358
#	92558
#	110624
#	125094
#	136309
#
# Disc length: 1982 seconds
#
# Revision: 1
# Processed by: cddbd v1.4PL0 Copyright (c) Steve Scherf et al.
# Submitted via: Audio-CD-Archiv 2.10.446
#
DISCID=8f07bc0b
DTITLE=C.W.STONEKING - C.W.STONEKING
DYEAR=1900
DGENRE=blues
TTITLE0=SHE'S GOT SOMETHING THERE
TTITLE1=DEATH LETTER
TTITLE2=LOVE IN VAIN
TTITLE3=KANSAS BLUES
TTITLE4=WAY DOWN IN NEW ORLEANS
TTITLE5=POLICE SEARGENT BLUES
TTITLE6=FARE THEE WELL BLUES
TTITLE7=RAMBLIN' ON MY MIND
TTITLE8=MALTED MILK
TTITLE9=BEANS
TTITLE10=GOING BACK TO ARKANSAS
EXTD=
EXTT0=
EXTT1=
EXTT2=
EXTT3=
EXTT4=
EXTT5=
EXTT6=
EXTT7=
EXTT8=
EXTT9=
EXTT10=
PLAYORDER=
